<?xml version="1.0" encoding="utf-8" standalone="no"?>
<!DOCTYPE svg PUBLIC "-//W3C//DTD SVG 1.1//EN"
  "http://www.w3.org/Graphics/SVG/1.1/DTD/svg11.dtd">
<svg xmlns:xlink="http://www.w3.org/1999/xlink" width="349.2pt" height="69.84pt" viewBox="0 0 349.2 69.84" xmlns="http://www.w3.org/2000/svg" version="1.1">
 <metadata>
  <rdf:RDF xmlns:dc="http://purl.org/dc/elements/1.1/" xmlns:cc="http://creativecommons.org/ns#" xmlns:rdf="http://www.w3.org/1999/02/22-rdf-syntax-ns#">
   <cc:Work>
    <dc:type rdf:resource="http://purl.org/dc/dcmitype/StillImage"/>
    <dc:date>2025-08-28T10:23:15.991355</dc:date>
    <dc:format>image/svg+xml</dc:format>
    <dc:creator>
     <cc:Agent>
      <dc:title>Matplotlib v3.10.5, https://matplotlib.org/</dc:title>
     </cc:Agent>
    </dc:creator>
   </cc:Work>
  </rdf:RDF>
 </metadata>
 <defs>
  <style type="text/css">*{stroke-linejoin: round; stroke-linecap: butt}</style>
 </defs>
 <g id="figure_1">
  <g id="patch_1">
   <path d="M 0 69.84 
L 349.2 69.84 
L 349.2 0 
L 0 0 
L 0 69.84 
z
" style="fill: none"/>
  </g>
  <g id="axes_1">
   <g id="text_1">
    <!-- $V_{LA\_LL} = V_{LL} + \frac{R_4}{R_3+R_4} \cdot (V_{LA} - V_{LL})$ -->
    <g transform="translate(38.97 39.96) scale(0.18 -0.18)">
     <defs>
      <path id="DejaVuSans-Oblique-56" d="M 1319 0 
L 500 4666 
L 1119 4666 
L 1797 653 
L 4063 4666 
L 4750 4666 
L 2053 0 
L 1319 0 
z
" transform="scale(0.015625)"/>
      <path id="DejaVuSans-Oblique-4c" d="M 1075 4666 
L 1709 4666 
L 909 525 
L 3181 525 
L 3078 0 
L 172 0 
L 1075 4666 
z
" transform="scale(0.015625)"/>
      <path id="DejaVuSans-Oblique-41" d="M 2356 4666 
L 3072 4666 
L 3938 0 
L 3278 0 
L 3084 1197 
L 984 1197 
L 325 0 
L -341 0 
L 2356 4666 
z
M 2584 4044 
L 1275 1722 
L 2988 1722 
L 2584 4044 
z
" transform="scale(0.015625)"/>
      <path id="DejaVuSans-5f" d="M 3263 -1063 
L 3263 -1509 
L -63 -1509 
L -63 -1063 
L 3263 -1063 
z
" transform="scale(0.015625)"/>
      <path id="DejaVuSans-3d" d="M 678 2906 
L 4684 2906 
L 4684 2381 
L 678 2381 
L 678 2906 
z
M 678 1631 
L 4684 1631 
L 4684 1100 
L 678 1100 
L 678 1631 
z
" transform="scale(0.015625)"/>
      <path id="DejaVuSans-2b" d="M 2944 4013 
L 2944 2272 
L 4684 2272 
L 4684 1741 
L 2944 1741 
L 2944 0 
L 2419 0 
L 2419 1741 
L 678 1741 
L 678 2272 
L 2419 2272 
L 2419 4013 
L 2944 4013 
z
" transform="scale(0.015625)"/>
      <path id="DejaVuSans-Oblique-52" d="M 1613 4147 
L 1294 2491 
L 2106 2491 
Q 2584 2491 2879 2755 
Q 3175 3019 3175 3444 
Q 3175 3784 2976 3965 
Q 2778 4147 2406 4147 
L 1613 4147 
z
M 2772 2241 
Q 2972 2194 3105 2009 
Q 3238 1825 3413 1275 
L 3809 0 
L 3144 0 
L 2778 1197 
Q 2638 1659 2453 1815 
Q 2269 1972 1888 1972 
L 1191 1972 
L 806 0 
L 172 0 
L 1081 4666 
L 2503 4666 
Q 3150 4666 3495 4373 
Q 3841 4081 3841 3531 
Q 3841 3044 3547 2687 
Q 3253 2331 2772 2241 
z
" transform="scale(0.015625)"/>
      <path id="DejaVuSans-34" d="M 2419 4116 
L 825 1625 
L 2419 1625 
L 2419 4116 
z
M 2253 4666 
L 3047 4666 
L 3047 1625 
L 3713 1625 
L 3713 1100 
L 3047 1100 
L 3047 0 
L 2419 0 
L 2419 1100 
L 313 1100 
L 313 1709 
L 2253 4666 
z
" transform="scale(0.015625)"/>
      <path id="DejaVuSans-33" d="M 2597 2516 
Q 3050 2419 3304 2112 
Q 3559 1806 3559 1356 
Q 3559 666 3084 287 
Q 2609 -91 1734 -91 
Q 1441 -91 1130 -33 
Q 819 25 488 141 
L 488 750 
Q 750 597 1062 519 
Q 1375 441 1716 441 
Q 2309 441 2620 675 
Q 2931 909 2931 1356 
Q 2931 1769 2642 2001 
Q 2353 2234 1838 2234 
L 1294 2234 
L 1294 2753 
L 1863 2753 
Q 2328 2753 2575 2939 
Q 2822 3125 2822 3475 
Q 2822 3834 2567 4026 
Q 2313 4219 1838 4219 
Q 1578 4219 1281 4162 
Q 984 4106 628 3988 
L 628 4550 
Q 988 4650 1302 4700 
Q 1616 4750 1894 4750 
Q 2613 4750 3031 4423 
Q 3450 4097 3450 3541 
Q 3450 3153 3228 2886 
Q 3006 2619 2597 2516 
z
" transform="scale(0.015625)"/>
      <path id="DejaVuSans-22c5" d="M 684 2619 
L 1344 2619 
L 1344 1825 
L 684 1825 
L 684 2619 
z
" transform="scale(0.015625)"/>
      <path id="DejaVuSans-28" d="M 1984 4856 
Q 1566 4138 1362 3434 
Q 1159 2731 1159 2009 
Q 1159 1288 1364 580 
Q 1569 -128 1984 -844 
L 1484 -844 
Q 1016 -109 783 600 
Q 550 1309 550 2009 
Q 550 2706 781 3412 
Q 1013 4119 1484 4856 
L 1984 4856 
z
" transform="scale(0.015625)"/>
      <path id="DejaVuSans-2212" d="M 678 2272 
L 4684 2272 
L 4684 1741 
L 678 1741 
L 678 2272 
z
" transform="scale(0.015625)"/>
      <path id="DejaVuSans-29" d="M 513 4856 
L 1013 4856 
Q 1481 4119 1714 3412 
Q 1947 2706 1947 2009 
Q 1947 1309 1714 600 
Q 1481 -109 1013 -844 
L 513 -844 
Q 928 -128 1133 580 
Q 1338 1288 1338 2009 
Q 1338 2731 1133 3434 
Q 928 4138 513 4856 
z
" transform="scale(0.015625)"/>
     </defs>
     <use xlink:href="#DejaVuSans-Oblique-56" transform="translate(0 0.684375)"/>
     <use xlink:href="#DejaVuSans-Oblique-4c" transform="translate(68.408203 -15.721875) scale(0.7)"/>
     <use xlink:href="#DejaVuSans-Oblique-41" transform="translate(107.407227 -15.721875) scale(0.7)"/>
     <use xlink:href="#DejaVuSans-5f" transform="translate(155.292969 -15.721875) scale(0.7)"/>
     <use xlink:href="#DejaVuSans-Oblique-4c" transform="translate(190.292969 -15.721875) scale(0.7)"/>
     <use xlink:href="#DejaVuSans-Oblique-4c" transform="translate(229.291992 -15.721875) scale(0.7)"/>
     <use xlink:href="#DejaVuSans-3d" transform="translate(290.507812 0.684375)"/>
     <use xlink:href="#DejaVuSans-Oblique-56" transform="translate(393.779297 0.684375)"/>
     <use xlink:href="#DejaVuSans-Oblique-4c" transform="translate(462.1875 -15.721875) scale(0.7)"/>
     <use xlink:href="#DejaVuSans-Oblique-4c" transform="translate(501.186523 -15.721875) scale(0.7)"/>
     <use xlink:href="#DejaVuSans-2b" transform="translate(562.402344 0.684375)"/>
     <use xlink:href="#DejaVuSans-Oblique-52" transform="translate(749.673828 55.965625) scale(0.7)"/>
     <use xlink:href="#DejaVuSans-34" transform="translate(798.311523 44.48125) scale(0.49)"/>
     <use xlink:href="#DejaVuSans-Oblique-52" transform="translate(665.673828 -37.803125) scale(0.7)"/>
     <use xlink:href="#DejaVuSans-33" transform="translate(714.311523 -49.2875) scale(0.49)"/>
     <use xlink:href="#DejaVuSans-2b" transform="translate(761.038574 -37.803125) scale(0.7)"/>
     <use xlink:href="#DejaVuSans-Oblique-52" transform="translate(833.328613 -37.803125) scale(0.7)"/>
     <use xlink:href="#DejaVuSans-34" transform="translate(881.966309 -49.2875) scale(0.49)"/>
     <use xlink:href="#DejaVuSans-22c5" transform="translate(947.038086 0.684375)"/>
     <use xlink:href="#DejaVuSans-28" transform="translate(998.307617 0.684375)"/>
     <use xlink:href="#DejaVuSans-Oblique-56" transform="translate(1037.321289 0.684375)"/>
     <use xlink:href="#DejaVuSans-Oblique-4c" transform="translate(1105.729492 -15.721875) scale(0.7)"/>
     <use xlink:href="#DejaVuSans-Oblique-41" transform="translate(1144.728516 -15.721875) scale(0.7)"/>
     <use xlink:href="#DejaVuSans-2212" transform="translate(1214.831055 0.684375)"/>
     <use xlink:href="#DejaVuSans-Oblique-56" transform="translate(1318.102539 0.684375)"/>
     <use xlink:href="#DejaVuSans-Oblique-4c" transform="translate(1386.510742 -15.721875) scale(0.7)"/>
     <use xlink:href="#DejaVuSans-Oblique-4c" transform="translate(1425.509766 -15.721875) scale(0.7)"/>
     <use xlink:href="#DejaVuSans-29" transform="translate(1467.243164 0.684375)"/>
     <path d="M 665.673828 19.48125 
L 665.673828 25.73125 
L 915.055664 25.73125 
L 915.055664 19.48125 
L 665.673828 19.48125 
z
"/>
    </g>
   </g>
  </g>
 </g>
</svg>
