<?xml version="1.0" encoding="utf-8" standalone="no"?>
<!DOCTYPE svg PUBLIC "-//W3C//DTD SVG 1.1//EN"
  "http://www.w3.org/Graphics/SVG/1.1/DTD/svg11.dtd">
<svg xmlns:xlink="http://www.w3.org/1999/xlink" width="349.2pt" height="69.84pt" viewBox="0 0 349.2 69.84" xmlns="http://www.w3.org/2000/svg" version="1.1">
 <metadata>
  <rdf:RDF xmlns:dc="http://purl.org/dc/elements/1.1/" xmlns:cc="http://creativecommons.org/ns#" xmlns:rdf="http://www.w3.org/1999/02/22-rdf-syntax-ns#">
   <cc:Work>
    <dc:type rdf:resource="http://purl.org/dc/dcmitype/StillImage"/>
    <dc:date>2025-08-28T10:23:15.722347</dc:date>
    <dc:format>image/svg+xml</dc:format>
    <dc:creator>
     <cc:Agent>
      <dc:title>Matplotlib v3.10.5, https://matplotlib.org/</dc:title>
     </cc:Agent>
    </dc:creator>
   </cc:Work>
  </rdf:RDF>
 </metadata>
 <defs>
  <style type="text/css">*{stroke-linejoin: round; stroke-linecap: butt}</style>
 </defs>
 <g id="figure_1">
  <g id="patch_1">
   <path d="M 0 69.84 
L 349.2 69.84 
L 349.2 0 
L 0 0 
L 0 69.84 
z
" style="fill: none"/>
  </g>
  <g id="axes_1">
   <g id="text_1">
    <!-- $V_{RA\_LA} = V_{LA} + \frac{R_2}{R_1+R_2} \cdot (V_{RA} - V_{LA})$ -->
    <g transform="translate(34.83 40.05) scale(0.18 -0.18)">
     <defs>
      <path id="DejaVuSans-Oblique-56" d="M 1319 0 
L 500 4666 
L 1119 4666 
L 1797 653 
L 4063 4666 
L 4750 4666 
L 2053 0 
L 1319 0 
z
" transform="scale(0.015625)"/>
      <path id="DejaVuSans-Oblique-52" d="M 1613 4147 
L 1294 2491 
L 2106 2491 
Q 2584 2491 2879 2755 
Q 3175 3019 3175 3444 
Q 3175 3784 2976 3965 
Q 2778 4147 2406 4147 
L 1613 4147 
z
M 2772 2241 
Q 2972 2194 3105 2009 
Q 3238 1825 3413 1275 
L 3809 0 
L 3144 0 
L 2778 1197 
Q 2638 1659 2453 1815 
Q 2269 1972 1888 1972 
L 1191 1972 
L 806 0 
L 172 0 
L 1081 4666 
L 2503 4666 
Q 3150 4666 3495 4373 
Q 3841 4081 3841 3531 
Q 3841 3044 3547 2687 
Q 3253 2331 2772 2241 
z
" transform="scale(0.015625)"/>
      <path id="DejaVuSans-Oblique-41" d="M 2356 4666 
L 3072 4666 
L 3938 0 
L 3278 0 
L 3084 1197 
L 984 1197 
L 325 0 
L -341 0 
L 2356 4666 
z
M 2584 4044 
L 1275 1722 
L 2988 1722 
L 2584 4044 
z
" transform="scale(0.015625)"/>
      <path id="DejaVuSans-5f" d="M 3263 -1063 
L 3263 -1509 
L -63 -1509 
L -63 -1063 
L 3263 -1063 
z
" transform="scale(0.015625)"/>
      <path id="DejaVuSans-Oblique-4c" d="M 1075 4666 
L 1709 4666 
L 909 525 
L 3181 525 
L 3078 0 
L 172 0 
L 1075 4666 
z
" transform="scale(0.015625)"/>
      <path id="DejaVuSans-3d" d="M 678 2906 
L 4684 2906 
L 4684 2381 
L 678 2381 
L 678 2906 
z
M 678 1631 
L 4684 1631 
L 4684 1100 
L 678 1100 
L 678 1631 
z
" transform="scale(0.015625)"/>
      <path id="DejaVuSans-2b" d="M 2944 4013 
L 2944 2272 
L 4684 2272 
L 4684 1741 
L 2944 1741 
L 2944 0 
L 2419 0 
L 2419 1741 
L 678 1741 
L 678 2272 
L 2419 2272 
L 2419 4013 
L 2944 4013 
z
" transform="scale(0.015625)"/>
      <path id="DejaVuSans-32" d="M 1228 531 
L 3431 531 
L 3431 0 
L 469 0 
L 469 531 
Q 828 903 1448 1529 
Q 2069 2156 2228 2338 
Q 2531 2678 2651 2914 
Q 2772 3150 2772 3378 
Q 2772 3750 2511 3984 
Q 2250 4219 1831 4219 
Q 1534 4219 1204 4116 
Q 875 4013 500 3803 
L 500 4441 
Q 881 4594 1212 4672 
Q 1544 4750 1819 4750 
Q 2544 4750 2975 4387 
Q 3406 4025 3406 3419 
Q 3406 3131 3298 2873 
Q 3191 2616 2906 2266 
Q 2828 2175 2409 1742 
Q 1991 1309 1228 531 
z
" transform="scale(0.015625)"/>
      <path id="DejaVuSans-31" d="M 794 531 
L 1825 531 
L 1825 4091 
L 703 3866 
L 703 4441 
L 1819 4666 
L 2450 4666 
L 2450 531 
L 3481 531 
L 3481 0 
L 794 0 
L 794 531 
z
" transform="scale(0.015625)"/>
      <path id="DejaVuSans-22c5" d="M 684 2619 
L 1344 2619 
L 1344 1825 
L 684 1825 
L 684 2619 
z
" transform="scale(0.015625)"/>
      <path id="DejaVuSans-28" d="M 1984 4856 
Q 1566 4138 1362 3434 
Q 1159 2731 1159 2009 
Q 1159 1288 1364 580 
Q 1569 -128 1984 -844 
L 1484 -844 
Q 1016 -109 783 600 
Q 550 1309 550 2009 
Q 550 2706 781 3412 
Q 1013 4119 1484 4856 
L 1984 4856 
z
" transform="scale(0.015625)"/>
      <path id="DejaVuSans-2212" d="M 678 2272 
L 4684 2272 
L 4684 1741 
L 678 1741 
L 678 2272 
z
" transform="scale(0.015625)"/>
      <path id="DejaVuSans-29" d="M 513 4856 
L 1013 4856 
Q 1481 4119 1714 3412 
Q 1947 2706 1947 2009 
Q 1947 1309 1714 600 
Q 1481 -109 1013 -844 
L 513 -844 
Q 928 -128 1133 580 
Q 1338 1288 1338 2009 
Q 1338 2731 1133 3434 
Q 928 4138 513 4856 
z
" transform="scale(0.015625)"/>
     </defs>
     <use xlink:href="#DejaVuSans-Oblique-56" transform="translate(0 0.684375)"/>
     <use xlink:href="#DejaVuSans-Oblique-52" transform="translate(68.408203 -15.721875) scale(0.7)"/>
     <use xlink:href="#DejaVuSans-Oblique-41" transform="translate(117.045898 -15.721875) scale(0.7)"/>
     <use xlink:href="#DejaVuSans-5f" transform="translate(164.931641 -15.721875) scale(0.7)"/>
     <use xlink:href="#DejaVuSans-Oblique-4c" transform="translate(199.931641 -15.721875) scale(0.7)"/>
     <use xlink:href="#DejaVuSans-Oblique-41" transform="translate(238.930664 -15.721875) scale(0.7)"/>
     <use xlink:href="#DejaVuSans-3d" transform="translate(309.033203 0.684375)"/>
     <use xlink:href="#DejaVuSans-Oblique-56" transform="translate(412.304688 0.684375)"/>
     <use xlink:href="#DejaVuSans-Oblique-4c" transform="translate(480.712891 -15.721875) scale(0.7)"/>
     <use xlink:href="#DejaVuSans-Oblique-41" transform="translate(519.711914 -15.721875) scale(0.7)"/>
     <use xlink:href="#DejaVuSans-2b" transform="translate(589.814453 0.684375)"/>
     <use xlink:href="#DejaVuSans-Oblique-52" transform="translate(777.085938 55.965625) scale(0.7)"/>
     <use xlink:href="#DejaVuSans-32" transform="translate(825.723633 44.48125) scale(0.49)"/>
     <use xlink:href="#DejaVuSans-Oblique-52" transform="translate(693.085938 -37.803125) scale(0.7)"/>
     <use xlink:href="#DejaVuSans-31" transform="translate(741.723633 -49.2875) scale(0.49)"/>
     <use xlink:href="#DejaVuSans-2b" transform="translate(788.450684 -37.803125) scale(0.7)"/>
     <use xlink:href="#DejaVuSans-Oblique-52" transform="translate(860.740723 -37.803125) scale(0.7)"/>
     <use xlink:href="#DejaVuSans-32" transform="translate(909.378418 -49.2875) scale(0.49)"/>
     <use xlink:href="#DejaVuSans-22c5" transform="translate(974.450195 0.684375)"/>
     <use xlink:href="#DejaVuSans-28" transform="translate(1025.719727 0.684375)"/>
     <use xlink:href="#DejaVuSans-Oblique-56" transform="translate(1064.733398 0.684375)"/>
     <use xlink:href="#DejaVuSans-Oblique-52" transform="translate(1133.141602 -15.721875) scale(0.7)"/>
     <use xlink:href="#DejaVuSans-Oblique-41" transform="translate(1181.779297 -15.721875) scale(0.7)"/>
     <use xlink:href="#DejaVuSans-2212" transform="translate(1251.881836 0.684375)"/>
     <use xlink:href="#DejaVuSans-Oblique-56" transform="translate(1355.15332 0.684375)"/>
     <use xlink:href="#DejaVuSans-Oblique-4c" transform="translate(1423.561523 -15.721875) scale(0.7)"/>
     <use xlink:href="#DejaVuSans-Oblique-41" transform="translate(1462.560547 -15.721875) scale(0.7)"/>
     <use xlink:href="#DejaVuSans-29" transform="translate(1513.180664 0.684375)"/>
     <path d="M 693.085938 19.48125 
L 693.085938 25.73125 
L 942.467773 25.73125 
L 942.467773 19.48125 
L 693.085938 19.48125 
z
"/>
    </g>
   </g>
  </g>
 </g>
</svg>
