<?xml version="1.0" encoding="utf-8" standalone="no"?>
<!DOCTYPE svg PUBLIC "-//W3C//DTD SVG 1.1//EN"
  "http://www.w3.org/Graphics/SVG/1.1/DTD/svg11.dtd">
<svg xmlns:xlink="http://www.w3.org/1999/xlink" width="349.2pt" height="69.84pt" viewBox="0 0 349.2 69.84" xmlns="http://www.w3.org/2000/svg" version="1.1">
 <metadata>
  <rdf:RDF xmlns:dc="http://purl.org/dc/elements/1.1/" xmlns:cc="http://creativecommons.org/ns#" xmlns:rdf="http://www.w3.org/1999/02/22-rdf-syntax-ns#">
   <cc:Work>
    <dc:type rdf:resource="http://purl.org/dc/dcmitype/StillImage"/>
    <dc:date>2025-08-28T10:23:16.266641</dc:date>
    <dc:format>image/svg+xml</dc:format>
    <dc:creator>
     <cc:Agent>
      <dc:title>Matplotlib v3.10.5, https://matplotlib.org/</dc:title>
     </cc:Agent>
    </dc:creator>
   </cc:Work>
  </rdf:RDF>
 </metadata>
 <defs>
  <style type="text/css">*{stroke-linejoin: round; stroke-linecap: butt}</style>
 </defs>
 <g id="figure_1">
  <g id="patch_1">
   <path d="M 0 69.84 
L 349.2 69.84 
L 349.2 0 
L 0 0 
L 0 69.84 
z
" style="fill: none"/>
  </g>
  <g id="axes_1">
   <g id="text_1">
    <!-- $V_{RA\_LL} = V_{LL} + \frac{R_8}{R_7+R_8} \cdot (V_{RA} - V_{LL})$ -->
    <g transform="translate(37.26 40.05) scale(0.18 -0.18)">
     <defs>
      <path id="DejaVuSans-Oblique-56" d="M 1319 0 
L 500 4666 
L 1119 4666 
L 1797 653 
L 4063 4666 
L 4750 4666 
L 2053 0 
L 1319 0 
z
" transform="scale(0.015625)"/>
      <path id="DejaVuSans-Oblique-52" d="M 1613 4147 
L 1294 2491 
L 2106 2491 
Q 2584 2491 2879 2755 
Q 3175 3019 3175 3444 
Q 3175 3784 2976 3965 
Q 2778 4147 2406 4147 
L 1613 4147 
z
M 2772 2241 
Q 2972 2194 3105 2009 
Q 3238 1825 3413 1275 
L 3809 0 
L 3144 0 
L 2778 1197 
Q 2638 1659 2453 1815 
Q 2269 1972 1888 1972 
L 1191 1972 
L 806 0 
L 172 0 
L 1081 4666 
L 2503 4666 
Q 3150 4666 3495 4373 
Q 3841 4081 3841 3531 
Q 3841 3044 3547 2687 
Q 3253 2331 2772 2241 
z
" transform="scale(0.015625)"/>
      <path id="DejaVuSans-Oblique-41" d="M 2356 4666 
L 3072 4666 
L 3938 0 
L 3278 0 
L 3084 1197 
L 984 1197 
L 325 0 
L -341 0 
L 2356 4666 
z
M 2584 4044 
L 1275 1722 
L 2988 1722 
L 2584 4044 
z
" transform="scale(0.015625)"/>
      <path id="DejaVuSans-5f" d="M 3263 -1063 
L 3263 -1509 
L -63 -1509 
L -63 -1063 
L 3263 -1063 
z
" transform="scale(0.015625)"/>
      <path id="DejaVuSans-Oblique-4c" d="M 1075 4666 
L 1709 4666 
L 909 525 
L 3181 525 
L 3078 0 
L 172 0 
L 1075 4666 
z
" transform="scale(0.015625)"/>
      <path id="DejaVuSans-3d" d="M 678 2906 
L 4684 2906 
L 4684 2381 
L 678 2381 
L 678 2906 
z
M 678 1631 
L 4684 1631 
L 4684 1100 
L 678 1100 
L 678 1631 
z
" transform="scale(0.015625)"/>
      <path id="DejaVuSans-2b" d="M 2944 4013 
L 2944 2272 
L 4684 2272 
L 4684 1741 
L 2944 1741 
L 2944 0 
L 2419 0 
L 2419 1741 
L 678 1741 
L 678 2272 
L 2419 2272 
L 2419 4013 
L 2944 4013 
z
" transform="scale(0.015625)"/>
      <path id="DejaVuSans-38" d="M 2034 2216 
Q 1584 2216 1326 1975 
Q 1069 1734 1069 1313 
Q 1069 891 1326 650 
Q 1584 409 2034 409 
Q 2484 409 2743 651 
Q 3003 894 3003 1313 
Q 3003 1734 2745 1975 
Q 2488 2216 2034 2216 
z
M 1403 2484 
Q 997 2584 770 2862 
Q 544 3141 544 3541 
Q 544 4100 942 4425 
Q 1341 4750 2034 4750 
Q 2731 4750 3128 4425 
Q 3525 4100 3525 3541 
Q 3525 3141 3298 2862 
Q 3072 2584 2669 2484 
Q 3125 2378 3379 2068 
Q 3634 1759 3634 1313 
Q 3634 634 3220 271 
Q 2806 -91 2034 -91 
Q 1263 -91 848 271 
Q 434 634 434 1313 
Q 434 1759 690 2068 
Q 947 2378 1403 2484 
z
M 1172 3481 
Q 1172 3119 1398 2916 
Q 1625 2713 2034 2713 
Q 2441 2713 2670 2916 
Q 2900 3119 2900 3481 
Q 2900 3844 2670 4047 
Q 2441 4250 2034 4250 
Q 1625 4250 1398 4047 
Q 1172 3844 1172 3481 
z
" transform="scale(0.015625)"/>
      <path id="DejaVuSans-37" d="M 525 4666 
L 3525 4666 
L 3525 4397 
L 1831 0 
L 1172 0 
L 2766 4134 
L 525 4134 
L 525 4666 
z
" transform="scale(0.015625)"/>
      <path id="DejaVuSans-22c5" d="M 684 2619 
L 1344 2619 
L 1344 1825 
L 684 1825 
L 684 2619 
z
" transform="scale(0.015625)"/>
      <path id="DejaVuSans-28" d="M 1984 4856 
Q 1566 4138 1362 3434 
Q 1159 2731 1159 2009 
Q 1159 1288 1364 580 
Q 1569 -128 1984 -844 
L 1484 -844 
Q 1016 -109 783 600 
Q 550 1309 550 2009 
Q 550 2706 781 3412 
Q 1013 4119 1484 4856 
L 1984 4856 
z
" transform="scale(0.015625)"/>
      <path id="DejaVuSans-2212" d="M 678 2272 
L 4684 2272 
L 4684 1741 
L 678 1741 
L 678 2272 
z
" transform="scale(0.015625)"/>
      <path id="DejaVuSans-29" d="M 513 4856 
L 1013 4856 
Q 1481 4119 1714 3412 
Q 1947 2706 1947 2009 
Q 1947 1309 1714 600 
Q 1481 -109 1013 -844 
L 513 -844 
Q 928 -128 1133 580 
Q 1338 1288 1338 2009 
Q 1338 2731 1133 3434 
Q 928 4138 513 4856 
z
" transform="scale(0.015625)"/>
     </defs>
     <use xlink:href="#DejaVuSans-Oblique-56" transform="translate(0 0.987656)"/>
     <use xlink:href="#DejaVuSans-Oblique-52" transform="translate(68.408203 -15.418594) scale(0.7)"/>
     <use xlink:href="#DejaVuSans-Oblique-41" transform="translate(117.045898 -15.418594) scale(0.7)"/>
     <use xlink:href="#DejaVuSans-5f" transform="translate(164.931641 -15.418594) scale(0.7)"/>
     <use xlink:href="#DejaVuSans-Oblique-4c" transform="translate(199.931641 -15.418594) scale(0.7)"/>
     <use xlink:href="#DejaVuSans-Oblique-4c" transform="translate(238.930664 -15.418594) scale(0.7)"/>
     <use xlink:href="#DejaVuSans-3d" transform="translate(300.146484 0.987656)"/>
     <use xlink:href="#DejaVuSans-Oblique-56" transform="translate(403.417969 0.987656)"/>
     <use xlink:href="#DejaVuSans-Oblique-4c" transform="translate(471.826172 -15.418594) scale(0.7)"/>
     <use xlink:href="#DejaVuSans-Oblique-4c" transform="translate(510.825195 -15.418594) scale(0.7)"/>
     <use xlink:href="#DejaVuSans-2b" transform="translate(572.041016 0.987656)"/>
     <use xlink:href="#DejaVuSans-Oblique-52" transform="translate(759.3125 56.965625) scale(0.7)"/>
     <use xlink:href="#DejaVuSans-38" transform="translate(807.950195 45.48125) scale(0.49)"/>
     <use xlink:href="#DejaVuSans-Oblique-52" transform="translate(675.3125 -37.499844) scale(0.7)"/>
     <use xlink:href="#DejaVuSans-37" transform="translate(723.950195 -48.984219) scale(0.49)"/>
     <use xlink:href="#DejaVuSans-2b" transform="translate(770.677246 -37.499844) scale(0.7)"/>
     <use xlink:href="#DejaVuSans-Oblique-52" transform="translate(842.967285 -37.499844) scale(0.7)"/>
     <use xlink:href="#DejaVuSans-38" transform="translate(891.60498 -48.984219) scale(0.49)"/>
     <use xlink:href="#DejaVuSans-22c5" transform="translate(956.676758 0.987656)"/>
     <use xlink:href="#DejaVuSans-28" transform="translate(1007.946289 0.987656)"/>
     <use xlink:href="#DejaVuSans-Oblique-56" transform="translate(1046.959961 0.987656)"/>
     <use xlink:href="#DejaVuSans-Oblique-52" transform="translate(1115.368164 -15.418594) scale(0.7)"/>
     <use xlink:href="#DejaVuSans-Oblique-41" transform="translate(1164.005859 -15.418594) scale(0.7)"/>
     <use xlink:href="#DejaVuSans-2212" transform="translate(1234.108398 0.987656)"/>
     <use xlink:href="#DejaVuSans-Oblique-56" transform="translate(1337.379883 0.987656)"/>
     <use xlink:href="#DejaVuSans-Oblique-4c" transform="translate(1405.788086 -15.418594) scale(0.7)"/>
     <use xlink:href="#DejaVuSans-Oblique-4c" transform="translate(1444.787109 -15.418594) scale(0.7)"/>
     <use xlink:href="#DejaVuSans-29" transform="translate(1486.520508 0.987656)"/>
     <path d="M 675.3125 19.784531 
L 675.3125 26.034531 
L 924.694336 26.034531 
L 924.694336 19.784531 
L 675.3125 19.784531 
z
"/>
    </g>
   </g>
  </g>
 </g>
</svg>
