<?xml version="1.0" encoding="utf-8" standalone="no"?>
<!DOCTYPE svg PUBLIC "-//W3C//DTD SVG 1.1//EN"
  "http://www.w3.org/Graphics/SVG/1.1/DTD/svg11.dtd">
<svg xmlns:xlink="http://www.w3.org/1999/xlink" width="349.2pt" height="69.84pt" viewBox="0 0 349.2 69.84" xmlns="http://www.w3.org/2000/svg" version="1.1">
 <metadata>
  <rdf:RDF xmlns:dc="http://purl.org/dc/elements/1.1/" xmlns:cc="http://creativecommons.org/ns#" xmlns:rdf="http://www.w3.org/1999/02/22-rdf-syntax-ns#">
   <cc:Work>
    <dc:type rdf:resource="http://purl.org/dc/dcmitype/StillImage"/>
    <dc:date>2025-08-28T10:23:16.498510</dc:date>
    <dc:format>image/svg+xml</dc:format>
    <dc:creator>
     <cc:Agent>
      <dc:title>Matplotlib v3.10.5, https://matplotlib.org/</dc:title>
     </cc:Agent>
    </dc:creator>
   </cc:Work>
  </rdf:RDF>
 </metadata>
 <defs>
  <style type="text/css">*{stroke-linejoin: round; stroke-linecap: butt}</style>
 </defs>
 <g id="figure_1">
  <g id="patch_1">
   <path d="M 0 69.84 
L 349.2 69.84 
L 349.2 0 
L 0 0 
L 0 69.84 
z
" style="fill: none"/>
  </g>
  <g id="axes_1">
   <g id="text_1">
    <!-- $V_{WCT} = \frac{V_{RA\_LA} + V_{LA\_LL} + V_{RA\_LL}}{3}$ -->
    <g transform="translate(73.08 41.85) scale(0.18 -0.18)">
     <defs>
      <path id="DejaVuSans-Oblique-56" d="M 1319 0 
L 500 4666 
L 1119 4666 
L 1797 653 
L 4063 4666 
L 4750 4666 
L 2053 0 
L 1319 0 
z
" transform="scale(0.015625)"/>
      <path id="DejaVuSans-Oblique-57" d="M 616 4666 
L 1228 4666 
L 1453 697 
L 3213 4666 
L 3916 4666 
L 4147 697 
L 5888 4666 
L 6528 4666 
L 4453 0 
L 3659 0 
L 3444 3891 
L 1697 0 
L 903 0 
L 616 4666 
z
" transform="scale(0.015625)"/>
      <path id="DejaVuSans-Oblique-43" d="M 4447 4306 
L 4319 3641 
Q 4019 3944 3683 4091 
Q 3347 4238 2956 4238 
Q 2422 4238 2017 3981 
Q 1613 3725 1319 3200 
Q 1131 2863 1032 2486 
Q 934 2109 934 1728 
Q 934 1091 1264 756 
Q 1594 422 2222 422 
Q 2656 422 3056 561 
Q 3456 700 3834 978 
L 3688 231 
Q 3316 72 2936 -9 
Q 2556 -91 2175 -91 
Q 1278 -91 773 396 
Q 269 884 269 1753 
Q 269 2309 461 2846 
Q 653 3384 1013 3828 
Q 1394 4300 1883 4525 
Q 2372 4750 3022 4750 
Q 3422 4750 3780 4639 
Q 4138 4528 4447 4306 
z
" transform="scale(0.015625)"/>
      <path id="DejaVuSans-Oblique-54" d="M 378 4666 
L 4325 4666 
L 4225 4134 
L 2559 4134 
L 1759 0 
L 1125 0 
L 1925 4134 
L 275 4134 
L 378 4666 
z
" transform="scale(0.015625)"/>
      <path id="DejaVuSans-3d" d="M 678 2906 
L 4684 2906 
L 4684 2381 
L 678 2381 
L 678 2906 
z
M 678 1631 
L 4684 1631 
L 4684 1100 
L 678 1100 
L 678 1631 
z
" transform="scale(0.015625)"/>
      <path id="DejaVuSans-Oblique-52" d="M 1613 4147 
L 1294 2491 
L 2106 2491 
Q 2584 2491 2879 2755 
Q 3175 3019 3175 3444 
Q 3175 3784 2976 3965 
Q 2778 4147 2406 4147 
L 1613 4147 
z
M 2772 2241 
Q 2972 2194 3105 2009 
Q 3238 1825 3413 1275 
L 3809 0 
L 3144 0 
L 2778 1197 
Q 2638 1659 2453 1815 
Q 2269 1972 1888 1972 
L 1191 1972 
L 806 0 
L 172 0 
L 1081 4666 
L 2503 4666 
Q 3150 4666 3495 4373 
Q 3841 4081 3841 3531 
Q 3841 3044 3547 2687 
Q 3253 2331 2772 2241 
z
" transform="scale(0.015625)"/>
      <path id="DejaVuSans-Oblique-41" d="M 2356 4666 
L 3072 4666 
L 3938 0 
L 3278 0 
L 3084 1197 
L 984 1197 
L 325 0 
L -341 0 
L 2356 4666 
z
M 2584 4044 
L 1275 1722 
L 2988 1722 
L 2584 4044 
z
" transform="scale(0.015625)"/>
      <path id="DejaVuSans-5f" d="M 3263 -1063 
L 3263 -1509 
L -63 -1509 
L -63 -1063 
L 3263 -1063 
z
" transform="scale(0.015625)"/>
      <path id="DejaVuSans-Oblique-4c" d="M 1075 4666 
L 1709 4666 
L 909 525 
L 3181 525 
L 3078 0 
L 172 0 
L 1075 4666 
z
" transform="scale(0.015625)"/>
      <path id="DejaVuSans-2b" d="M 2944 4013 
L 2944 2272 
L 4684 2272 
L 4684 1741 
L 2944 1741 
L 2944 0 
L 2419 0 
L 2419 1741 
L 678 1741 
L 678 2272 
L 2419 2272 
L 2419 4013 
L 2944 4013 
z
" transform="scale(0.015625)"/>
      <path id="DejaVuSans-33" d="M 2597 2516 
Q 3050 2419 3304 2112 
Q 3559 1806 3559 1356 
Q 3559 666 3084 287 
Q 2609 -91 1734 -91 
Q 1441 -91 1130 -33 
Q 819 25 488 141 
L 488 750 
Q 750 597 1062 519 
Q 1375 441 1716 441 
Q 2309 441 2620 675 
Q 2931 909 2931 1356 
Q 2931 1769 2642 2001 
Q 2353 2234 1838 2234 
L 1294 2234 
L 1294 2753 
L 1863 2753 
Q 2328 2753 2575 2939 
Q 2822 3125 2822 3475 
Q 2822 3834 2567 4026 
Q 2313 4219 1838 4219 
Q 1578 4219 1281 4162 
Q 984 4106 628 3988 
L 628 4550 
Q 988 4650 1302 4700 
Q 1616 4750 1894 4750 
Q 2613 4750 3031 4423 
Q 3450 4097 3450 3541 
Q 3450 3153 3228 2886 
Q 3006 2619 2597 2516 
z
" transform="scale(0.015625)"/>
     </defs>
     <use xlink:href="#DejaVuSans-Oblique-56" transform="translate(0 0.131094)"/>
     <use xlink:href="#DejaVuSans-Oblique-57" transform="translate(68.408203 -16.275156) scale(0.7)"/>
     <use xlink:href="#DejaVuSans-Oblique-43" transform="translate(137.62207 -16.275156) scale(0.7)"/>
     <use xlink:href="#DejaVuSans-Oblique-54" transform="translate(186.499023 -16.275156) scale(0.7)"/>
     <use xlink:href="#DejaVuSans-3d" transform="translate(251.474609 0.131094)"/>
     <use xlink:href="#DejaVuSans-Oblique-56" transform="translate(354.746094 66.965625) scale(0.7)"/>
     <use xlink:href="#DejaVuSans-Oblique-52" transform="translate(402.631836 55.48125) scale(0.49)"/>
     <use xlink:href="#DejaVuSans-Oblique-41" transform="translate(436.678223 55.48125) scale(0.49)"/>
     <use xlink:href="#DejaVuSans-5f" transform="translate(470.198242 55.48125) scale(0.49)"/>
     <use xlink:href="#DejaVuSans-Oblique-4c" transform="translate(494.698242 55.48125) scale(0.49)"/>
     <use xlink:href="#DejaVuSans-Oblique-41" transform="translate(521.997559 55.48125) scale(0.49)"/>
     <use xlink:href="#DejaVuSans-2b" transform="translate(571.069336 66.965625) scale(0.7)"/>
     <use xlink:href="#DejaVuSans-Oblique-56" transform="translate(643.359375 66.965625) scale(0.7)"/>
     <use xlink:href="#DejaVuSans-Oblique-4c" transform="translate(691.245117 55.48125) scale(0.49)"/>
     <use xlink:href="#DejaVuSans-Oblique-41" transform="translate(718.544434 55.48125) scale(0.49)"/>
     <use xlink:href="#DejaVuSans-5f" transform="translate(752.064453 55.48125) scale(0.49)"/>
     <use xlink:href="#DejaVuSans-Oblique-4c" transform="translate(776.564453 55.48125) scale(0.49)"/>
     <use xlink:href="#DejaVuSans-Oblique-4c" transform="translate(803.86377 55.48125) scale(0.49)"/>
     <use xlink:href="#DejaVuSans-2b" transform="translate(846.714844 66.965625) scale(0.7)"/>
     <use xlink:href="#DejaVuSans-Oblique-56" transform="translate(919.004883 66.965625) scale(0.7)"/>
     <use xlink:href="#DejaVuSans-Oblique-52" transform="translate(966.890625 55.48125) scale(0.49)"/>
     <use xlink:href="#DejaVuSans-Oblique-41" transform="translate(1000.937012 55.48125) scale(0.49)"/>
     <use xlink:href="#DejaVuSans-5f" transform="translate(1034.457031 55.48125) scale(0.49)"/>
     <use xlink:href="#DejaVuSans-Oblique-4c" transform="translate(1058.957031 55.48125) scale(0.49)"/>
     <use xlink:href="#DejaVuSans-Oblique-4c" transform="translate(1086.256348 55.48125) scale(0.49)"/>
     <use xlink:href="#DejaVuSans-33" transform="translate(712.746094 -39.275156) scale(0.7)"/>
     <path d="M 354.746094 18.927969 
L 354.746094 25.177969 
L 1115.469727 25.177969 
L 1115.469727 18.927969 
L 354.746094 18.927969 
z
"/>
    </g>
   </g>
  </g>
 </g>
</svg>
