<?xml version="1.0" encoding="utf-8" standalone="no"?>
<!DOCTYPE svg PUBLIC "-//W3C//DTD SVG 1.1//EN"
  "http://www.w3.org/Graphics/SVG/1.1/DTD/svg11.dtd">
<svg xmlns:xlink="http://www.w3.org/1999/xlink" width="349.2pt" height="69.84pt" viewBox="0 0 349.2 69.84" xmlns="http://www.w3.org/2000/svg" version="1.1">
 <metadata>
  <rdf:RDF xmlns:dc="http://purl.org/dc/elements/1.1/" xmlns:cc="http://creativecommons.org/ns#" xmlns:rdf="http://www.w3.org/1999/02/22-rdf-syntax-ns#">
   <cc:Work>
    <dc:type rdf:resource="http://purl.org/dc/dcmitype/StillImage"/>
    <dc:date>2025-08-28T10:23:18.834182</dc:date>
    <dc:format>image/svg+xml</dc:format>
    <dc:creator>
     <cc:Agent>
      <dc:title>Matplotlib v3.10.5, https://matplotlib.org/</dc:title>
     </cc:Agent>
    </dc:creator>
   </cc:Work>
  </rdf:RDF>
 </metadata>
 <defs>
  <style type="text/css">*{stroke-linejoin: round; stroke-linecap: butt}</style>
 </defs>
 <g id="figure_1">
  <g id="patch_1">
   <path d="M 0 69.84 
L 349.2 69.84 
L 349.2 0 
L 0 0 
L 0 69.84 
z
" style="fill: none"/>
  </g>
  <g id="axes_1">
   <g id="text_1">
    <!-- $V_{WCT} = \frac{\frac{V_{RA}}{R_5} + \frac{V_{LA}}{R_6} + \frac{V_{LL}}{R_9}}{\frac{1}{R_5} + \frac{1}{R_6} + \frac{1}{R_9}}$ -->
    <g transform="translate(102.69 40.68) scale(0.18 -0.18)">
     <defs>
      <path id="DejaVuSans-Oblique-56" d="M 1319 0 
L 500 4666 
L 1119 4666 
L 1797 653 
L 4063 4666 
L 4750 4666 
L 2053 0 
L 1319 0 
z
" transform="scale(0.015625)"/>
      <path id="DejaVuSans-Oblique-57" d="M 616 4666 
L 1228 4666 
L 1453 697 
L 3213 4666 
L 3916 4666 
L 4147 697 
L 5888 4666 
L 6528 4666 
L 4453 0 
L 3659 0 
L 3444 3891 
L 1697 0 
L 903 0 
L 616 4666 
z
" transform="scale(0.015625)"/>
      <path id="DejaVuSans-Oblique-43" d="M 4447 4306 
L 4319 3641 
Q 4019 3944 3683 4091 
Q 3347 4238 2956 4238 
Q 2422 4238 2017 3981 
Q 1613 3725 1319 3200 
Q 1131 2863 1032 2486 
Q 934 2109 934 1728 
Q 934 1091 1264 756 
Q 1594 422 2222 422 
Q 2656 422 3056 561 
Q 3456 700 3834 978 
L 3688 231 
Q 3316 72 2936 -9 
Q 2556 -91 2175 -91 
Q 1278 -91 773 396 
Q 269 884 269 1753 
Q 269 2309 461 2846 
Q 653 3384 1013 3828 
Q 1394 4300 1883 4525 
Q 2372 4750 3022 4750 
Q 3422 4750 3780 4639 
Q 4138 4528 4447 4306 
z
" transform="scale(0.015625)"/>
      <path id="DejaVuSans-Oblique-54" d="M 378 4666 
L 4325 4666 
L 4225 4134 
L 2559 4134 
L 1759 0 
L 1125 0 
L 1925 4134 
L 275 4134 
L 378 4666 
z
" transform="scale(0.015625)"/>
      <path id="DejaVuSans-3d" d="M 678 2906 
L 4684 2906 
L 4684 2381 
L 678 2381 
L 678 2906 
z
M 678 1631 
L 4684 1631 
L 4684 1100 
L 678 1100 
L 678 1631 
z
" transform="scale(0.015625)"/>
      <path id="DejaVuSans-Oblique-52" d="M 1613 4147 
L 1294 2491 
L 2106 2491 
Q 2584 2491 2879 2755 
Q 3175 3019 3175 3444 
Q 3175 3784 2976 3965 
Q 2778 4147 2406 4147 
L 1613 4147 
z
M 2772 2241 
Q 2972 2194 3105 2009 
Q 3238 1825 3413 1275 
L 3809 0 
L 3144 0 
L 2778 1197 
Q 2638 1659 2453 1815 
Q 2269 1972 1888 1972 
L 1191 1972 
L 806 0 
L 172 0 
L 1081 4666 
L 2503 4666 
Q 3150 4666 3495 4373 
Q 3841 4081 3841 3531 
Q 3841 3044 3547 2687 
Q 3253 2331 2772 2241 
z
" transform="scale(0.015625)"/>
      <path id="DejaVuSans-Oblique-41" d="M 2356 4666 
L 3072 4666 
L 3938 0 
L 3278 0 
L 3084 1197 
L 984 1197 
L 325 0 
L -341 0 
L 2356 4666 
z
M 2584 4044 
L 1275 1722 
L 2988 1722 
L 2584 4044 
z
" transform="scale(0.015625)"/>
      <path id="DejaVuSans-35" d="M 691 4666 
L 3169 4666 
L 3169 4134 
L 1269 4134 
L 1269 2991 
Q 1406 3038 1543 3061 
Q 1681 3084 1819 3084 
Q 2600 3084 3056 2656 
Q 3513 2228 3513 1497 
Q 3513 744 3044 326 
Q 2575 -91 1722 -91 
Q 1428 -91 1123 -41 
Q 819 9 494 109 
L 494 744 
Q 775 591 1075 516 
Q 1375 441 1709 441 
Q 2250 441 2565 725 
Q 2881 1009 2881 1497 
Q 2881 1984 2565 2268 
Q 2250 2553 1709 2553 
Q 1456 2553 1204 2497 
Q 953 2441 691 2322 
L 691 4666 
z
" transform="scale(0.015625)"/>
      <path id="DejaVuSans-2b" d="M 2944 4013 
L 2944 2272 
L 4684 2272 
L 4684 1741 
L 2944 1741 
L 2944 0 
L 2419 0 
L 2419 1741 
L 678 1741 
L 678 2272 
L 2419 2272 
L 2419 4013 
L 2944 4013 
z
" transform="scale(0.015625)"/>
      <path id="DejaVuSans-Oblique-4c" d="M 1075 4666 
L 1709 4666 
L 909 525 
L 3181 525 
L 3078 0 
L 172 0 
L 1075 4666 
z
" transform="scale(0.015625)"/>
      <path id="DejaVuSans-36" d="M 2113 2584 
Q 1688 2584 1439 2293 
Q 1191 2003 1191 1497 
Q 1191 994 1439 701 
Q 1688 409 2113 409 
Q 2538 409 2786 701 
Q 3034 994 3034 1497 
Q 3034 2003 2786 2293 
Q 2538 2584 2113 2584 
z
M 3366 4563 
L 3366 3988 
Q 3128 4100 2886 4159 
Q 2644 4219 2406 4219 
Q 1781 4219 1451 3797 
Q 1122 3375 1075 2522 
Q 1259 2794 1537 2939 
Q 1816 3084 2150 3084 
Q 2853 3084 3261 2657 
Q 3669 2231 3669 1497 
Q 3669 778 3244 343 
Q 2819 -91 2113 -91 
Q 1303 -91 875 529 
Q 447 1150 447 2328 
Q 447 3434 972 4092 
Q 1497 4750 2381 4750 
Q 2619 4750 2861 4703 
Q 3103 4656 3366 4563 
z
" transform="scale(0.015625)"/>
      <path id="DejaVuSans-39" d="M 703 97 
L 703 672 
Q 941 559 1184 500 
Q 1428 441 1663 441 
Q 2288 441 2617 861 
Q 2947 1281 2994 2138 
Q 2813 1869 2534 1725 
Q 2256 1581 1919 1581 
Q 1219 1581 811 2004 
Q 403 2428 403 3163 
Q 403 3881 828 4315 
Q 1253 4750 1959 4750 
Q 2769 4750 3195 4129 
Q 3622 3509 3622 2328 
Q 3622 1225 3098 567 
Q 2575 -91 1691 -91 
Q 1453 -91 1209 -44 
Q 966 3 703 97 
z
M 1959 2075 
Q 2384 2075 2632 2365 
Q 2881 2656 2881 3163 
Q 2881 3666 2632 3958 
Q 2384 4250 1959 4250 
Q 1534 4250 1286 3958 
Q 1038 3666 1038 3163 
Q 1038 2656 1286 2365 
Q 1534 2075 1959 2075 
z
" transform="scale(0.015625)"/>
      <path id="DejaVuSans-31" d="M 794 531 
L 1825 531 
L 1825 4091 
L 703 3866 
L 703 4441 
L 1819 4666 
L 2450 4666 
L 2450 531 
L 3481 531 
L 3481 0 
L 794 0 
L 794 531 
z
" transform="scale(0.015625)"/>
     </defs>
     <use xlink:href="#DejaVuSans-Oblique-56" transform="translate(0 0.314172)"/>
     <use xlink:href="#DejaVuSans-Oblique-57" transform="translate(68.408203 -16.092078) scale(0.7)"/>
     <use xlink:href="#DejaVuSans-Oblique-43" transform="translate(137.62207 -16.092078) scale(0.7)"/>
     <use xlink:href="#DejaVuSans-Oblique-54" transform="translate(186.499023 -16.092078) scale(0.7)"/>
     <use xlink:href="#DejaVuSans-3d" transform="translate(251.474609 0.314172)"/>
     <use xlink:href="#DejaVuSans-Oblique-56" transform="translate(354.746094 118.275937) scale(0.49)"/>
     <use xlink:href="#DejaVuSans-Oblique-52" transform="translate(388.266113 110.236875) scale(0.343)"/>
     <use xlink:href="#DejaVuSans-Oblique-41" transform="translate(412.098584 110.236875) scale(0.343)"/>
     <use xlink:href="#DejaVuSans-Oblique-52" transform="translate(366.746094 52.637812) scale(0.49)"/>
     <use xlink:href="#DejaVuSans-35" transform="translate(400.79248 44.59875) scale(0.343)"/>
     <use xlink:href="#DejaVuSans-2b" transform="translate(459.290137 79.579063) scale(0.7)"/>
     <use xlink:href="#DejaVuSans-Oblique-56" transform="translate(531.580176 118.275937) scale(0.49)"/>
     <use xlink:href="#DejaVuSans-Oblique-4c" transform="translate(565.100195 110.236875) scale(0.343)"/>
     <use xlink:href="#DejaVuSans-Oblique-41" transform="translate(584.209717 110.236875) scale(0.343)"/>
     <use xlink:href="#DejaVuSans-Oblique-52" transform="translate(541.580176 52.637812) scale(0.49)"/>
     <use xlink:href="#DejaVuSans-36" transform="translate(575.626562 44.59875) scale(0.343)"/>
     <use xlink:href="#DejaVuSans-2b" transform="translate(631.40127 79.579063) scale(0.7)"/>
     <use xlink:href="#DejaVuSans-Oblique-56" transform="translate(703.691309 118.275937) scale(0.49)"/>
     <use xlink:href="#DejaVuSans-Oblique-4c" transform="translate(737.211328 110.236875) scale(0.343)"/>
     <use xlink:href="#DejaVuSans-Oblique-4c" transform="translate(756.32085 110.236875) scale(0.343)"/>
     <use xlink:href="#DejaVuSans-Oblique-52" transform="translate(711.691309 52.637812) scale(0.49)"/>
     <use xlink:href="#DejaVuSans-39" transform="translate(745.737695 44.59875) scale(0.343)"/>
     <use xlink:href="#DejaVuSans-31" transform="translate(398.746094 -22.863016) scale(0.49)"/>
     <use xlink:href="#DejaVuSans-Oblique-52" transform="translate(385.746094 -80.462078) scale(0.49)"/>
     <use xlink:href="#DejaVuSans-35" transform="translate(419.79248 -88.501141) scale(0.343)"/>
     <use xlink:href="#DejaVuSans-2b" transform="translate(465.342725 -53.520828) scale(0.7)"/>
     <use xlink:href="#DejaVuSans-31" transform="translate(550.632764 -22.863016) scale(0.49)"/>
     <use xlink:href="#DejaVuSans-Oblique-52" transform="translate(537.632764 -80.462078) scale(0.49)"/>
     <use xlink:href="#DejaVuSans-36" transform="translate(571.67915 -88.501141) scale(0.343)"/>
     <use xlink:href="#DejaVuSans-2b" transform="translate(617.229395 -53.520828) scale(0.7)"/>
     <use xlink:href="#DejaVuSans-31" transform="translate(702.519434 -22.863016) scale(0.49)"/>
     <use xlink:href="#DejaVuSans-Oblique-52" transform="translate(689.519434 -80.462078) scale(0.49)"/>
     <use xlink:href="#DejaVuSans-39" transform="translate(723.56582 -88.501141) scale(0.343)"/>
     <path d="M 354.746094 92.736875 
L 354.746094 97.111875 
L 436.902441 97.111875 
L 436.902441 92.736875 
L 354.746094 92.736875 
z
"/>
     <path d="M 531.580176 92.736875 
L 531.580176 97.111875 
L 609.013574 97.111875 
L 609.013574 92.736875 
L 531.580176 92.736875 
z
"/>
     <path d="M 703.691309 92.736875 
L 703.691309 97.111875 
L 776.770215 97.111875 
L 776.770215 92.736875 
L 703.691309 92.736875 
z
"/>
     <path d="M 354.746094 19.111047 
L 354.746094 25.361047 
L 785.520215 25.361047 
L 785.520215 19.111047 
L 354.746094 19.111047 
z
"/>
     <path d="M 385.746094 -40.363016 
L 385.746094 -35.988016 
L 442.955029 -35.988016 
L 442.955029 -40.363016 
L 385.746094 -40.363016 
z
"/>
     <path d="M 537.632764 -40.363016 
L 537.632764 -35.988016 
L 594.841699 -35.988016 
L 594.841699 -40.363016 
L 537.632764 -40.363016 
z
"/>
     <path d="M 689.519434 -40.363016 
L 689.519434 -35.988016 
L 746.728369 -35.988016 
L 746.728369 -40.363016 
L 689.519434 -40.363016 
z
"/>
    </g>
   </g>
  </g>
 </g>
</svg>
